C:\GBW_MyPrograms\KinderuniversiteitApp\Resultaten\New_group\Reus_v2.mot
version=1
nRows=6
nColumns=31
inDegrees=yes
endheader
                time	         pelvis_tilt	           pelvis_tx	           pelvis_ty	       hip_flexion_r	        knee_angle_r	       ankle_angle_r	       hip_flexion_l	        knee_angle_l	       ankle_angle_l	    lumbar_extension	          arm_flex_r	          arm_flex_l	hamstrings_r/activation	bifemsh_r/activation	glut_max_r/activation	iliopsoas_r/activation	rect_fem_r/activation	  vasti_r/activation	gastroc_r/activation	 soleus_r/activation	tib_ant_r/activation	hamstrings_l/activation	bifemsh_l/activation	glut_max_l/activation	iliopsoas_l/activation	rect_fem_l/activation	  vasti_l/activation	gastroc_l/activation	 soleus_l/activation	tib_ant_l/activation	
          2.68092133	          1.08021119	          7.19481681	          5.62492805	          4.66426283	        -20.58496273	         12.52886173	         10.88727795	        -25.47563878	         11.84611209	         -5.39846887	         -3.84115084	         -3.84134502	          0.15411380	          0.33535034	          0.80607497	          0.31437587	          0.85210185	          0.90074867	          0.53191498	          0.88315787	          0.41446597	          0.23349322	          0.80939060	          0.15023063	          0.88987297	          0.65118220	          0.10551224	          0.21318494	          0.09680736	          0.79021759	
          2.69879414	          0.96809470	          7.23615108	          5.61549343	          4.76944123	        -21.48312557	         13.29014999	         12.71387903	        -28.80575089	         10.30777313	         -5.41089685	         -3.68898261	         -3.68863966	          0.13514286	          0.34452606	          0.76712572	          0.35938259	          0.87007854	          0.92383582	          0.53349095	          0.86583510	          0.43585261	          0.18101792	          0.69809426	          0.13416486	          0.86999995	          0.78373166	          0.29858526	          0.19928948	          0.08967436	          0.79656199	
          2.71666694	          0.79685470	          7.27779540	          5.60620678	          4.91637724	        -22.33570845	         13.97395014	         14.57896886	        -32.33927940	         11.10187788	         -5.34882245	         -3.55880756	         -3.55913763	          0.12934577	          0.35666525	          0.73888049	          0.37608441	          0.86316100	          0.91889818	          0.53790905	          0.85803102	          0.45118788	          0.14488601	          0.64254603	          0.13409046	          0.84325528	          0.85035503	          0.46932511	          0.19219680	          0.08941103	          0.81077168	
          2.73453975	          0.51993991	          7.32028846	          5.59656637	          5.09205262	        -23.04677766	         14.60675638	         16.36350903	        -35.26894955	         10.88242007	         -5.14679010	         -3.47502526	         -3.47477297	          0.13251219	          0.36549648	          0.76084075	          0.37143393	          0.84802734	          0.91860162	          0.54025765	          0.85337823	          0.46182584	          0.12761610	          0.61426853	          0.16363077	          0.81342883	          0.85096620	          0.57897251	          0.18691735	          0.09175742	          0.83371063	
          2.75241256	          0.16431754	          7.36390051	          5.58681083	          5.23791738	        -23.57047514	         15.19961530	         17.98749930	        -37.47956413	         10.14501934	         -4.83047062	         -3.43697230	         -3.43726359	          0.13206446	          0.37279266	          0.76301005	          0.37489928	          0.84702809	          0.92376173	          0.53790079	          0.84623051	          0.47243630	          0.12476825	          0.59976538	          0.20113190	          0.79717447	          0.84571675	          0.63358648	          0.18111488	          0.09528133	          0.84001595	
          2.77028537	         -0.22659967	          7.40879163	          5.57730549	          5.28849439	        -23.87694312	         15.76106475	         19.38382695	        -38.95116788	          9.40603605	         -4.44705166	         -3.43998585	         -3.43991109	          0.12562652	          0.37492217	          0.75418068	          0.38518107	          0.85722482	          0.93612646	          0.53150445	          0.83852094	          0.48540350	          0.12627048	          0.59173160	          0.23604657	          0.78917864	          0.83158667	          0.67377581	          0.16664526	          0.10039449	          0.83456208	
